<?xml version="1.0" encoding="UTF-8"?><svg id="Calque_1" xmlns="http://www.w3.org/2000/svg" viewBox="0 0 805.24 203.43"><defs><style>.cls-1{fill:#212067;}.cls-2{fill:#4945ff;}.cls-3{fill:#fff;stroke:#4945ff;stroke-miterlimit:10;stroke-width:3px;}</style></defs><g><path class="cls-1" d="M222.32,82.08c2.3-4.33,5.4-7.71,9.29-10.14,3.9-2.43,8.14-3.65,12.74-3.65,3.53,0,6.69,.62,9.49,1.85,2.8,1.23,5.06,2.95,6.79,5.15v-6.39h17.08v82.33h-17.08v-33.57c-1.93,2.33-4.28,4.2-7.04,5.6-2.76,1.4-5.91,2.1-9.44,2.1-4.53,0-8.73-1.2-12.59-3.6-3.86-2.4-6.94-5.76-9.24-10.09-2.3-4.33-3.45-9.26-3.45-14.79s1.15-10.46,3.45-14.79Zm36.57,7.14c-1.17-2.03-2.68-3.56-4.55-4.6-1.87-1.03-3.83-1.55-5.89-1.55s-3.93,.52-5.79,1.55c-1.87,1.03-3.4,2.58-4.6,4.65-1.2,2.07-1.8,4.6-1.8,7.59s.6,5.51,1.8,7.54c1.2,2.03,2.73,3.56,4.6,4.6,1.86,1.03,3.8,1.55,5.79,1.55s3.95-.52,5.84-1.55c1.9-1.03,3.43-2.58,4.6-4.65,1.16-2.06,1.75-4.6,1.75-7.59s-.58-5.51-1.75-7.54Z"/><path class="cls-1" d="M345.16,68.89v55.75h-17.08v-7.59c-1.73,2.47-4.08,4.45-7.04,5.95-2.96,1.5-6.25,2.25-9.84,2.25-4.26,0-8.03-.95-11.29-2.85-3.26-1.9-5.79-4.65-7.59-8.24-1.8-3.6-2.7-7.83-2.7-12.69v-32.57h16.99v30.27c0,3.73,.96,6.63,2.9,8.69,1.93,2.07,4.53,3.1,7.79,3.1s5.96-1.03,7.89-3.1c1.93-2.06,2.9-4.96,2.9-8.69v-30.27h17.08Z"/><path class="cls-1" d="M409.7,100.87h-38.67c.27,3.46,1.38,6.11,3.35,7.94,1.96,1.83,4.38,2.75,7.24,2.75,4.26,0,7.23-1.8,8.89-5.4h18.18c-.93,3.66-2.61,6.96-5.04,9.89-2.43,2.93-5.48,5.23-9.14,6.89-3.66,1.67-7.76,2.5-12.29,2.5-5.46,0-10.33-1.16-14.59-3.5-4.26-2.33-7.59-5.66-9.99-9.99-2.4-4.33-3.6-9.39-3.6-15.19s1.18-10.86,3.55-15.19c2.36-4.33,5.68-7.66,9.94-9.99,4.26-2.33,9.16-3.5,14.69-3.5s10.19,1.13,14.39,3.4c4.2,2.27,7.48,5.5,9.84,9.69,2.36,4.2,3.55,9.09,3.55,14.69,0,1.6-.1,3.26-.3,5Zm-17.19-9.49c0-2.93-1-5.26-3-6.99-2-1.73-4.5-2.6-7.49-2.6s-5.28,.83-7.24,2.5c-1.96,1.67-3.18,4.03-3.65,7.09h21.38Z"/><path class="cls-1" d="M468.6,74.64c3.9,4.23,5.84,10.04,5.84,17.43v32.57h-16.99v-30.27c0-3.73-.97-6.63-2.9-8.69-1.93-2.06-4.53-3.1-7.79-3.1s-5.86,1.03-7.79,3.1c-1.93,2.07-2.9,4.96-2.9,8.69v30.27h-17.09v-55.75h17.09v7.39c1.73-2.46,4.06-4.41,6.99-5.84,2.93-1.43,6.23-2.15,9.89-2.15,6.53,0,11.74,2.12,15.64,6.34Z"/><path class="cls-1" d="M517.41,110.16v14.49h-8.69c-6.19,0-11.02-1.51-14.49-4.55-3.46-3.03-5.2-7.98-5.2-14.84v-22.18h-6.79v-14.19h6.79v-13.59h17.08v13.59h11.19v14.19h-11.19v22.38c0,1.67,.4,2.87,1.2,3.6,.8,.73,2.13,1.1,4,1.1h6.09Z"/><path class="cls-1" d="M528.15,60.45c-1.9-1.76-2.85-3.95-2.85-6.54s.95-4.88,2.85-6.64c1.9-1.76,4.35-2.65,7.34-2.65s5.35,.88,7.24,2.65c1.9,1.77,2.85,3.98,2.85,6.64s-.95,4.78-2.85,6.54c-1.9,1.77-4.31,2.65-7.24,2.65s-5.45-.88-7.34-2.65Zm15.84,8.44v55.75h-17.09v-55.75h17.09Z"/><path class="cls-1" d="M605.98,74.64c3.9,4.23,5.84,10.04,5.84,17.43v32.57h-16.99v-30.27c0-3.73-.97-6.63-2.9-8.69-1.93-2.06-4.53-3.1-7.79-3.1s-5.86,1.03-7.79,3.1c-1.93,2.07-2.9,4.96-2.9,8.69v30.27h-17.09v-55.75h17.09v7.39c1.73-2.46,4.06-4.41,6.99-5.84,2.93-1.43,6.23-2.15,9.89-2.15,6.53,0,11.74,2.12,15.64,6.34Z"/><path class="cls-1" d="M624.36,122.8c-1.9-1.76-2.85-3.95-2.85-6.54s.95-4.9,2.85-6.69,4.35-2.7,7.34-2.7,5.35,.9,7.24,2.7,2.85,4.03,2.85,6.69-.95,4.78-2.85,6.54c-1.9,1.77-4.31,2.65-7.24,2.65s-5.45-.88-7.34-2.65Z"/><path class="cls-1" d="M668.98,131.84c0,6.86-1.73,11.81-5.2,14.84-3.46,3.03-8.29,4.55-14.49,4.55h-6.69v-14.49h4.1c1.86,0,3.2-.37,4-1.1,.8-.73,1.2-1.93,1.2-3.6v-63.15h17.09v62.95Zm-15.94-71.39c-1.9-1.76-2.85-3.95-2.85-6.54s.95-4.88,2.85-6.64c1.9-1.76,4.35-2.65,7.34-2.65s5.35,.88,7.24,2.65c1.9,1.77,2.85,3.98,2.85,6.64s-.95,4.78-2.85,6.54c-1.9,1.77-4.31,2.65-7.24,2.65s-5.45-.88-7.34-2.65Z"/><path class="cls-1" d="M690.96,122.95c-3.8-1.66-6.79-3.95-8.99-6.84-2.2-2.9-3.43-6.14-3.7-9.74h16.89c.2,1.93,1.1,3.5,2.7,4.7,1.6,1.2,3.56,1.8,5.9,1.8,2.13,0,3.78-.42,4.95-1.25,1.17-.83,1.75-1.91,1.75-3.25,0-1.6-.83-2.78-2.5-3.55-1.67-.76-4.36-1.61-8.09-2.55-4-.93-7.33-1.91-9.99-2.95-2.67-1.03-4.96-2.66-6.89-4.9-1.93-2.23-2.9-5.25-2.9-9.04,0-3.2,.88-6.11,2.65-8.74,1.76-2.63,4.36-4.71,7.79-6.24,3.43-1.53,7.51-2.3,12.24-2.3,6.99,0,12.5,1.73,16.54,5.2,4.03,3.46,6.34,8.06,6.94,13.79h-15.79c-.27-1.93-1.12-3.46-2.55-4.6-1.43-1.13-3.31-1.7-5.64-1.7-2,0-3.53,.38-4.6,1.15-1.07,.77-1.6,1.82-1.6,3.15,0,1.6,.85,2.8,2.55,3.6,1.7,.8,4.35,1.6,7.94,2.4,4.13,1.07,7.49,2.12,10.09,3.15,2.6,1.03,4.88,2.7,6.84,5,1.96,2.3,2.98,5.38,3.05,9.24,0,3.26-.92,6.18-2.75,8.74-1.83,2.56-4.46,4.58-7.89,6.04-3.43,1.46-7.41,2.2-11.94,2.2-4.86,0-9.19-.83-12.99-2.5Z"/></g><ellipse class="cls-2" cx="101.68" cy="97.38" rx="80.71" ry="78.39"/><ellipse class="cls-3" cx="69.21" cy="97.38" rx="41.47" ry="58.71"/><ellipse class="cls-2" cx="47.34" cy="87.37" rx="8.09" ry="15.32"/><ellipse class="cls-2" cx="77.21" cy="92.86" rx="8.09" ry="15.32"/></svg>